<?xml version="1.0" encoding="utf-8"?>
<!-- Generator: Adobe Illustrator 28.3.0, SVG Export Plug-In . SVG Version: 6.00 Build 0)  -->
<svg version="1.1" id="Layer_1" xmlns="http://www.w3.org/2000/svg" xmlns:xlink="http://www.w3.org/1999/xlink" x="0px" y="0px"
	 viewBox="0 0 40 40" style="enable-background:new 0 0 40 40;" xml:space="preserve">
<style type="text/css">
	.st0{fill:#71CC98;}
	.st1{fill:#FFFFFF;}
</style>
<g>
	<path class="st0" d="M37.5,20c0-9.7-7.8-17.5-17.5-17.5S2.5,10.3,2.5,20c0,8.7,6.4,16,14.8,17.3V25.1h-4.4V20h4.4v-3.9
		c0-4.4,2.6-6.8,6.6-6.8c1.9,0,3.9,0.3,3.9,0.3V14h-2.2c-2.2,0-2.9,1.3-2.9,2.7V20h4.9l-0.8,5.1h-4.1v12.2
		C31.1,36,37.5,28.7,37.5,20z"/>
	<path class="st1" d="M26.8,25.1l0.8-5.1h-4.9v-3.3c0-1.4,0.7-2.7,2.9-2.7h2.2V9.7c0,0-2-0.3-3.9-0.3c-4,0-6.6,2.4-6.6,6.8V20h-4.4
		v5.1h4.4v12.2c0.9,0.1,1.8,0.2,2.7,0.2s1.8-0.1,2.7-0.2V25.1H26.8z"/>
</g>
</svg>
