<?xml version="1.0" encoding="utf-8"?>
<!-- Generator: Adobe Illustrator 28.3.0, SVG Export Plug-In . SVG Version: 6.00 Build 0)  -->
<svg version="1.1" id="Layer_1" xmlns="http://www.w3.org/2000/svg" xmlns:xlink="http://www.w3.org/1999/xlink" x="0px" y="0px"
	 viewBox="0 0 40 40" style="enable-background:new 0 0 40 40;" xml:space="preserve">
<style type="text/css">
	.st0{fill:#71CC98;}
	.st1{fill:#FFFFFF;}
</style>
<g>
	<circle class="st0" cx="20" cy="20" r="17.5"/>
	<g>
		<g>
			<path class="st1" d="M20,11c2.9,0,3.3,0,4.5,0.1c1.1,0,1.7,0.2,2,0.4c0.5,0.2,0.9,0.4,1.3,0.8c0.4,0.4,0.6,0.8,0.8,1.3
				c0.2,0.4,0.3,1,0.4,2C29,16.7,29,17.1,29,20s0,3.3-0.1,4.5c0,1.1-0.2,1.7-0.4,2c-0.2,0.5-0.4,0.9-0.8,1.3
				c-0.4,0.4-0.8,0.6-1.3,0.8c-0.4,0.2-1,0.3-2,0.4C23.3,29,22.9,29,20,29c-2.9,0-3.3,0-4.5-0.1c-1.1,0-1.7-0.2-2-0.4
				c-0.5-0.2-0.9-0.4-1.3-0.8c-0.4-0.4-0.6-0.8-0.8-1.3c-0.2-0.4-0.3-1-0.4-2C11,23.3,11,22.9,11,20s0-3.3,0.1-4.5
				c0-1.1,0.2-1.7,0.4-2c0.2-0.5,0.4-0.9,0.8-1.3c0.4-0.4,0.8-0.6,1.3-0.8c0.4-0.2,1-0.3,2-0.4C16.7,11,17.1,11,20,11 M20,9
				c-3,0-3.4,0-4.5,0.1c-1.2,0.1-2,0.2-2.7,0.5c-0.7,0.3-1.3,0.7-2,1.3c-0.6,0.6-1,1.2-1.3,2c-0.3,0.7-0.5,1.5-0.5,2.7
				C9,16.6,9,17,9,20c0,3,0,3.4,0.1,4.5c0.1,1.2,0.2,2,0.5,2.7c0.3,0.7,0.7,1.3,1.3,2c0.6,0.6,1.2,1,2,1.3c0.7,0.3,1.5,0.5,2.7,0.5
				C16.6,31,17,31,20,31c3,0,3.4,0,4.5-0.1c1.2-0.1,2-0.2,2.7-0.5c0.7-0.3,1.3-0.7,2-1.3c0.6-0.6,1-1.2,1.3-2
				c0.3-0.7,0.5-1.5,0.5-2.7C31,23.4,31,23,31,20s0-3.4-0.1-4.5c-0.1-1.2-0.2-2-0.5-2.7c-0.3-0.7-0.7-1.3-1.3-2
				c-0.6-0.6-1.2-1-2-1.3c-0.7-0.3-1.5-0.5-2.7-0.5C23.4,9,23,9,20,9L20,9z"/>
			<path class="st1" d="M20,14.3c-3.1,0-5.7,2.5-5.7,5.7s2.5,5.7,5.7,5.7c3.1,0,5.7-2.5,5.7-5.7S23.1,14.3,20,14.3z M20,23.7
				c-2,0-3.7-1.6-3.7-3.7s1.6-3.7,3.7-3.7s3.7,1.6,3.7,3.7S22,23.7,20,23.7z"/>
			<circle class="st1" cx="25.9" cy="14.1" r="1.3"/>
		</g>
	</g>
</g>
</svg>
