<?xml version="1.0" encoding="utf-8"?>
<!-- Generator: Adobe Illustrator 28.3.0, SVG Export Plug-In . SVG Version: 6.00 Build 0)  -->
<svg version="1.1" id="Layer_1" xmlns="http://www.w3.org/2000/svg" xmlns:xlink="http://www.w3.org/1999/xlink" x="0px" y="0px"
	 viewBox="0 0 40 40" style="enable-background:new 0 0 40 40;" xml:space="preserve">
<style type="text/css">
	.st0{fill-rule:evenodd;clip-rule:evenodd;fill:#71CC98;}
	.st1{fill:#FFFFFF;}
	.st2{fill:#71CC98;}
</style>
<g>
	<circle class="st0" cx="20" cy="20" r="17.5"/>
	<g>
		<g id="FULL_COLOR_ICON_4_">
			<g id="TYPE_A_4_">
				<g>
					<path class="st1" d="M31.9,18.3c0-5.3-5.3-9.7-11.9-9.7C13.4,8.6,8,13,8,18.3c0,4.8,4.2,8.8,10,9.5c0.4,0.1,0.9,0.3,1.1,0.6
						c0.1,0.3,0.1,0.8,0,1.1c0,0-0.1,0.8-0.2,1c-0.1,0.3-0.2,1.2,1,0.6c1.3-0.5,6.9-4,9.4-6.9h0C31,22.4,31.9,20.5,31.9,18.3"/>
					<g>
						<path class="st2" d="M17.5,15.7h-0.8c-0.1,0-0.2,0.1-0.2,0.2v5.2c0,0.1,0.1,0.2,0.2,0.2h0.8c0.1,0,0.2-0.1,0.2-0.2V16
							C17.8,15.8,17.6,15.7,17.5,15.7"/>
						<path class="st2" d="M23.3,15.7h-0.8c-0.1,0-0.2,0.1-0.2,0.2v3.1l-2.4-3.2c0,0,0,0,0,0c0,0,0,0,0,0c0,0,0,0,0,0c0,0,0,0,0,0
							c0,0,0,0,0,0c0,0,0,0,0,0c0,0,0,0,0,0c0,0,0,0,0,0c0,0,0,0,0,0c0,0,0,0,0,0c0,0,0,0,0,0c0,0,0,0,0,0c0,0,0,0,0,0c0,0,0,0,0,0
							c0,0,0,0,0,0c0,0,0,0,0,0c0,0,0,0,0,0c0,0,0,0,0,0c0,0,0,0,0,0h-0.8c-0.1,0-0.2,0.1-0.2,0.2v5.2c0,0.1,0.1,0.2,0.2,0.2h0.8
							c0.1,0,0.2-0.1,0.2-0.2v-3.1l2.4,3.2c0,0,0,0,0.1,0.1c0,0,0,0,0,0c0,0,0,0,0,0c0,0,0,0,0,0c0,0,0,0,0,0c0,0,0,0,0,0
							c0,0,0,0,0,0c0,0,0,0,0,0c0,0,0,0,0,0c0,0,0,0,0.1,0h0.8c0.1,0,0.2-0.1,0.2-0.2V16C23.5,15.8,23.4,15.7,23.3,15.7"/>
						<path class="st2" d="M15.5,20.1h-2.3V16c0-0.1-0.1-0.2-0.2-0.2h-0.8c-0.1,0-0.2,0.1-0.2,0.2v5.2v0c0,0.1,0,0.1,0.1,0.2
							c0,0,0,0,0,0c0,0,0,0,0,0c0,0,0.1,0.1,0.2,0.1h0h3.3c0.1,0,0.2-0.1,0.2-0.2v-0.8C15.7,20.2,15.6,20.1,15.5,20.1"/>
						<path class="st2" d="M27.9,17c0.1,0,0.2-0.1,0.2-0.2V16c0-0.1-0.1-0.2-0.2-0.2h-3.3h0c-0.1,0-0.1,0-0.2,0.1c0,0,0,0,0,0
							c0,0,0,0,0,0c0,0-0.1,0.1-0.1,0.2v0v5.2v0c0,0.1,0,0.1,0.1,0.2c0,0,0,0,0,0c0,0,0,0,0,0c0,0,0.1,0.1,0.2,0.1h0h3.3
							c0.1,0,0.2-0.1,0.2-0.2v-0.8c0-0.1-0.1-0.2-0.2-0.2h-2.3v-0.9h2.3c0.1,0,0.2-0.1,0.2-0.2v-0.8c0-0.1-0.1-0.2-0.2-0.2h-2.3V17
							H27.9z"/>
					</g>
				</g>
			</g>
		</g>
	</g>
</g>
</svg>
