<?xml version="1.0" encoding="utf-8"?>
<!-- Generator: Adobe Illustrator 28.3.0, SVG Export Plug-In . SVG Version: 6.00 Build 0)  -->
<svg version="1.1" id="Layer_1" xmlns="http://www.w3.org/2000/svg" xmlns:xlink="http://www.w3.org/1999/xlink" x="0px" y="0px"
	 viewBox="0 0 40 40" style="enable-background:new 0 0 40 40;" xml:space="preserve">
<style type="text/css">
	.st0{fill:#71CC98;}
	.st1{fill:#FFFFFF;}
</style>
<g>
	<g>
		<circle class="st0" cx="20" cy="20" r="17.5"/>
	</g>
	<path class="st1" d="M29.8,14.2c0-0.1,0-0.1-0.1-0.1c-0.3,0-0.5,0-0.8-0.1c-0.9-0.1-3.9-1.7-4.4-4.2c0,0-0.1-0.7-0.1-1
		c0-0.1,0-0.1-0.1-0.1c0,0-0.1,0-0.1,0c-1.2,0-2.3,0-3.5,0c-0.2,0-0.2,0-0.2,0.2c0,5,0,10.1,0,15.1c0,0.2,0,0.4,0,0.6
		c-0.2,1-0.7,1.7-1.5,2.3c-0.7,0.5-1.5,0.6-2.4,0.4c-0.3-0.1-0.5-0.2-0.8-0.3c0,0,0,0-0.1-0.1c-0.1-0.1-0.2-0.1-0.3-0.2
		c-1.1-0.7-1.6-1.8-1.4-3.1c0.2-1.3,0.9-2.2,2.2-2.7c0.4-0.1,0.8-0.2,1.2-0.2c0.3,0,0.5,0,0.8,0.1c0.1,0,0.1,0,0.1-0.1
		c0,0,0-0.1,0-0.1c0-0.9,0-2.9,0-2.9c0-0.3,0-0.5,0-0.8c0-0.1,0-0.1-0.1-0.1c-0.5-0.1-0.9-0.1-1.4,0c-0.7,0-1.3,0.2-1.9,0.4
		c-1,0.4-1.8,0.9-2.6,1.6c-0.6,0.6-1.1,1.3-1.5,2.2c-0.4,0.8-0.6,1.6-0.6,2.4c0,0.4,0,0.7,0,1.1c0,0.5,0.1,1,0.3,1.5
		c0.4,1.4,1.3,2.6,2.4,3.5c0.1,0.1,0.2,0.2,0.4,0.3c0,0,0,0,0,0c0.1,0.1,0.1,0.1,0.2,0.2c0.2,0.1,0.4,0.3,0.6,0.4
		c1.3,0.6,2.7,0.9,4.1,0.7c1.9-0.2,3.4-1.1,4.6-2.5c1.1-1.3,1.7-2.9,1.7-4.7c0-2.5,0-5,0-7.5c0-0.1,0-0.1,0-0.2c0.1,0,0.1,0,0.2,0.1
		c0.9,0.6,1.9,1.1,3,1.3c0.6,0.1,1.3,0.2,1.9,0.2c0.2,0,0.2,0,0.2-0.2C29.9,16.9,29.8,14.5,29.8,14.2z"/>
</g>
</svg>
