<?xml version="1.0" encoding="utf-8"?>
<!-- Generator: Adobe Illustrator 24.0.1, SVG Export Plug-In . SVG Version: 6.00 Build 0)  -->
<svg version="1.1" id="Layer_1" xmlns="http://www.w3.org/2000/svg" xmlns:xlink="http://www.w3.org/1999/xlink" x="0px" y="0px"
	 viewBox="0 0 80 35" style="enable-background:new 0 0 80 35;" xml:space="preserve">
<style type="text/css">
	.st0{fill:#3FB6AD;}
</style>
<g>
	<g>
		<g>
			<path class="st0" d="M26.07,14l-3.38,0.58v-2.95l6.88-1.07v21.24h-3.51V14z"/>
			<path class="st0" d="M42.92,13.61h-10.2v-2.73h14v2.27l-7.89,18.64h-3.6L42.92,13.61z"/>
			<path class="st0" d="M59.09,13.61H48.9v-2.73h14v2.27L55,31.79h-3.6L59.09,13.61z"/>
			<path class="st0" d="M65.39,30.04c0.52-1.19,1.23-2.3,2.14-3.33c0.91-1.03,2.06-2.14,3.44-3.33c1.32-1.15,2.26-2.01,2.82-2.58
				c0.56-0.57,0.96-1.14,1.2-1.7c0.24-0.56,0.36-1.26,0.36-2.08c0-1.15-0.34-2.01-1.01-2.58c-0.67-0.57-1.74-0.86-3.21-0.86
				c-1.58,0-3.24,0.32-4.97,0.97v-3.12c0.78-0.26,1.68-0.47,2.71-0.63c1.03-0.16,2.01-0.24,2.94-0.24c2.29,0,4.05,0.57,5.26,1.7
				c1.21,1.14,1.82,2.71,1.82,4.72c0,1.36-0.33,2.54-0.99,3.54c-0.66,1-1.68,2.12-3.07,3.38l-0.55,0.49
				c-1.21,1.06-2.14,1.91-2.78,2.55c-0.64,0.64-1.17,1.35-1.61,2.13h9.22v2.73H65.39V30.04z"/>
		</g>
		<g>
			<path class="st0" d="M23.32,7.26c-0.42-0.41-0.63-0.99-0.63-1.72c0-0.78,0.2-1.38,0.61-1.8c0.41-0.42,1-0.63,1.79-0.63
				c0.5,0,0.96,0.08,1.38,0.23v0.85c-0.41-0.17-0.84-0.25-1.31-0.25c-0.52,0-0.9,0.13-1.13,0.39c-0.23,0.26-0.35,0.67-0.35,1.21
				c0,0.51,0.12,0.9,0.37,1.15c0.25,0.25,0.62,0.38,1.12,0.38c0.47,0,0.9-0.08,1.3-0.24v0.86c-0.43,0.14-0.89,0.21-1.38,0.21
				C24.33,7.88,23.74,7.67,23.32,7.26z"/>
			<path class="st0" d="M28.6,3.17h1.06l1.76,4.63h-1.01l-0.44-1.11h-1.7l-0.43,1.11h-1.01L28.6,3.17z M29.83,5.94l-0.71-1.86
				l-0.7,1.86H29.83z"/>
			<path class="st0" d="M32.1,3.17h0.97v3.88h2.28v0.75H32.1V3.17z"/>
			<path class="st0" d="M35.88,3.17h0.97v3.88h2.28v0.75h-3.25V3.17z"/>
			<path class="st0" d="M42.73,7.26c-0.42-0.41-0.63-0.99-0.63-1.72c0-0.78,0.2-1.38,0.61-1.8c0.41-0.42,1-0.63,1.79-0.63
				c0.5,0,0.96,0.08,1.38,0.23v0.85c-0.41-0.17-0.84-0.25-1.31-0.25c-0.52,0-0.9,0.13-1.13,0.39c-0.23,0.26-0.35,0.67-0.35,1.21
				c0,0.51,0.12,0.9,0.37,1.15c0.25,0.25,0.62,0.38,1.13,0.38c0.47,0,0.9-0.08,1.3-0.24v0.86C45.46,7.81,45,7.88,44.5,7.88
				C43.74,7.88,43.15,7.67,42.73,7.26z"/>
			<path class="st0" d="M46.56,3.17h3.32v0.76h-2.35v1.19h2.09v0.75h-2.09v1.19h2.35v0.75h-3.32V3.17z"/>
			<path class="st0" d="M50.56,3.17h0.84l2.19,3.08V3.17h0.97v4.63h-0.84l-2.19-3.08v3.08h-0.97V3.17z"/>
			<path class="st0" d="M56.52,3.92H55.1V3.17h3.81v0.75h-1.42v3.88h-0.97V3.92z"/>
			<path class="st0" d="M59.44,3.17h3.32v0.76h-2.35v1.19h2.09v0.75h-2.09v1.19h2.35v0.75h-3.32V3.17z"/>
			<path class="st0" d="M63.44,3.17h2.22c0.52,0,0.9,0.14,1.16,0.41c0.26,0.27,0.38,0.65,0.38,1.14c0,0.31-0.08,0.58-0.24,0.81
				c-0.16,0.23-0.39,0.39-0.68,0.49c0.07,0.06,0.13,0.13,0.18,0.2c0.05,0.07,0.09,0.17,0.15,0.29l0.56,1.29h-1.01l-0.55-1.24
				c-0.05-0.11-0.1-0.19-0.16-0.23c-0.06-0.04-0.15-0.06-0.28-0.06h-0.76v1.53h-0.97V3.17z M65.4,5.47c0.26,0,0.47-0.06,0.6-0.18
				c0.14-0.12,0.21-0.31,0.21-0.56c0-0.26-0.06-0.45-0.19-0.57c-0.12-0.12-0.31-0.18-0.57-0.18h-1.06v1.49H65.4z"/>
		</g>
	</g>
	<g>
		<g>
			<path class="st0" d="M17.04,34.04H3.55c-1.48,0-2.68-1.2-2.68-2.68V3.53c0-1.48,1.2-2.68,2.68-2.68h13.49
				c1.48,0,2.68,1.2,2.68,2.68v27.83C19.72,32.84,18.52,34.04,17.04,34.04z M3.55,1.66c-1.03,0-1.87,0.84-1.87,1.87v27.83
				c0,1.03,0.84,1.87,1.87,1.87h13.49c1.03,0,1.87-0.84,1.87-1.87V3.53c0-1.03-0.84-1.87-1.87-1.87H3.55z"/>
		</g>
		<g>
			<path class="st0" d="M17.94,28.65H2.66c-0.22,0-0.4-0.18-0.4-0.4V5.06c0-0.22,0.18-0.4,0.4-0.4h15.28c0.22,0,0.4,0.18,0.4,0.4
				v23.18C18.34,28.46,18.16,28.65,17.94,28.65z M3.06,27.84h14.47V5.47H3.06V27.84z"/>
		</g>
		<g>
			<path class="st0" d="M10.3,33.11c-1.2,0-2.17-0.97-2.17-2.17c0-1.2,0.97-2.17,2.17-2.17c1.2,0,2.17,0.97,2.17,2.17
				C12.47,32.14,11.5,33.11,10.3,33.11z M10.3,29.58c-0.75,0-1.36,0.61-1.36,1.36c0,0.75,0.61,1.36,1.36,1.36
				c0.75,0,1.36-0.61,1.36-1.36C11.66,30.19,11.05,29.58,10.3,29.58z"/>
		</g>
		<g>
			<path class="st0" d="M12.73,3.85H7.86c-0.22,0-0.4-0.18-0.4-0.4c0-0.22,0.18-0.4,0.4-0.4h4.86c0.22,0,0.4,0.18,0.4,0.4
				C13.13,3.67,12.95,3.85,12.73,3.85z"/>
		</g>
	</g>
</g>
</svg>
