<?xml version="1.0" encoding="utf-8"?>
<!-- Generator: Adobe Illustrator 23.1.0, SVG Export Plug-In . SVG Version: 6.00 Build 0)  -->
<svg version="1.1" id="Layer_1" xmlns="http://www.w3.org/2000/svg" xmlns:xlink="http://www.w3.org/1999/xlink" x="0px" y="0px"
	 viewBox="0 0 100 100" style="enable-background:new 0 0 100 100;" xml:space="preserve">
<style type="text/css">
	.st0{fill:#1877F2;}
	.st1{fill:#FFFFFF;}
</style>
<g id="XMLID_17_">
	<path id="XMLID_22_" class="st0" d="M99,50C99,22.9,77.1,1,50,1S1,22.9,1,50c0,24.5,17.9,44.7,41.3,48.4V64.2H29.9V50h12.4V39.2
		c0-12.3,7.3-19.1,18.5-19.1c5.4,0,11,1,11,1v12.1h-6.2c-6.1,0-8,3.8-8,7.7V50h13.6l-2.2,14.2H57.7v34.2C81.1,94.7,99,74.5,99,50z"
		/>
	<path id="XMLID_18_" class="st1" d="M69.1,64.2L71.2,50H57.7v-9.2c0-3.9,1.9-7.7,8-7.7h6.2V21.1c0,0-5.6-1-11-1
		c-11.2,0-18.5,6.8-18.5,19.1V50H29.9v14.2h12.4v34.2c2.5,0.4,5,0.6,7.7,0.6c2.6,0,5.2-0.2,7.7-0.6V64.2H69.1z"/>
</g>
</svg>
