<?xml version="1.0" encoding="utf-8"?>
<!-- Generator: Adobe Illustrator 23.1.0, SVG Export Plug-In . SVG Version: 6.00 Build 0)  -->
<svg version="1.1" id="Layer_1" xmlns="http://www.w3.org/2000/svg" xmlns:xlink="http://www.w3.org/1999/xlink" x="0px" y="0px"
	 viewBox="0 0 325 275" style="enable-background:new 0 0 325 275;" xml:space="preserve">
<style type="text/css">
	.st0{fill:#6CCA98;}
	.st1{fill:#006A5B;}
	.st2{fill:#7B868C;}
</style>
<g>
	<path class="st0" d="M146.4,172.4c0.2,0,0.3,0,0.5,0c0.2,0,0.5-0.1,0.8-0.1c0.1,0,0.2,0,0.3,0c0.9-0.1,1.6-0.1,2.3-0.2
		c8.2-1.3,14.8-6.9,17.6-14.6c0.3-0.7,0.5-1.4,0.7-2.1c0.1-0.4,0.2-0.9,0.2-1.3c0.3-1.3,0.4-2.6,0.4-3.9h0l0-0.1
		c0-12.4-10-22.3-22.3-22.3c-12.4,0-22.4,9.9-22.4,22.3c0,0.4,0.1,0.7,0.1,1c0,0.9-0.1,1.8-0.2,2.3c-0.1,1.5-0.5,3.1-0.9,4.4
		c-3.4,12.2-14.6,21.2-27.9,21.2c-13.8,0-25.4-9.6-28.2-22.6c-0.2-0.9-0.3-2.2-0.6-4.4c0-0.2-0.2-2.4,0.1-5.6c0-1.3,0.1-2.4,0.1-3.1
		c0-1,0-3.3,0-3.6c0-18-14.7-32.7-32.8-32.7c-18,0-32.7,14.6-32.7,32.7c0,18.1,14.7,32.7,32.7,32.7h12.3c14.1,0,28.8,14.5,28.8,28.9
		c0,15.4-12.1,27.9-27.3,28.7c-0.3,0-1.1,0.1-1.7,0.1c-0.2,0-0.4-0.1-0.6-0.1c-12.4,0-22.4,10-22.4,22.3c0,12.3,10,22.4,22.4,22.4
		c2.4,0,4.7-0.5,6.9-1.2c0.5-0.2,1.1-0.3,1.6-0.5c0.6-0.2,1.2-0.6,1.8-0.9c0.7-0.3,1.4-0.6,2-1.1c0.5-0.4,0.9-0.7,1.3-1.1
		c0.7-0.5,1.3-1,1.9-1.6c0.4-0.4,0.7-0.8,1.1-1.2c0.6-0.7,1.2-1.3,1.7-2c0.3-0.4,0.5-0.9,0.8-1.3c0.4-0.8,0.9-1.6,1.3-2.5
		c0.2-0.4,0.4-0.9,0.5-1.4c0.3-0.8,0.6-1.8,0.8-2.7c0.1-0.4,0.1-1,0.2-1.5c0.1-0.6,0.3-1.2,0.3-1.9c0.1-1.3,0.2-2.2,0.2-2.4
		c0-0.5,0-1,0.1-1.5c0.9-14.7,13.1-26.5,28.2-26.5c15.2,0,27.4,12.2,27.9,27.3c0,0.5,0,0.9,0,1.4v0.1c0,3.8,1.1,7.4,2.7,10.5
		c0.4,0.7,0.7,1.4,1.1,2c0.7,1,1.5,1.9,2.3,2.8c0.1,0.1,0.2,0.3,0.4,0.4c4,4.1,9.6,6.6,15.8,6.6c0.4,0,0.6-0.1,1-0.1
		c0.8-0.1,1.7-0.1,2.4-0.3c0.6-0.1,1.2-0.2,1.8-0.4c0.7-0.2,1.4-0.4,2-0.6c1-0.3,1.8-0.7,2.7-1.1c0.2-0.1,0.5-0.2,0.7-0.4
		c0.2,0,0.3-0.2,0.5-0.3c0.7-0.4,1.3-0.7,1.9-1.2c0.9-0.6,1.6-1.2,2.4-1.9c0.4-0.5,0.8-0.8,1.1-1.2c0.4-0.6,0.9-1.1,1.4-1.7
		c0.3-0.4,0.6-0.8,0.9-1.3c0.5-0.9,1.1-1.8,1.6-2.8c0.2-0.4,0.4-0.9,0.5-1.3c0.3-0.8,0.5-1.6,0.7-2.4c0.1-0.6,0.3-1.1,0.3-1.6
		c0.2-0.8,0.2-1.8,0.3-2.6c0-0.4,0.1-0.7,0.1-1.1c0-0.5-0.1-1.1-0.2-1.6c0-0.7,0-1.4-0.1-2c-0.2-0.8-0.4-1.6-0.6-2.4
		c-0.1-0.4-0.1-0.7-0.3-1.1c-2.7-8-9.7-13.9-18.3-14.9c-0.2-0.1-0.5-0.1-0.7-0.1c-0.7,0-1.4-0.2-2.1-0.2c-0.3,0-0.6,0.1-0.9,0.1
		c-15.6-0.5-28-13.2-28-28.9C118,185.6,130.6,172.7,146.4,172.4z"/>
	<path class="st1" d="M218.1,139.7c-0.2-0.4-0.3-0.7-0.5-1.1c-0.4-0.9-0.8-1.6-1.3-2.5c-0.2-0.3-0.3-0.6-0.5-0.8
		c-0.6-0.8-1.2-1.6-1.9-2.3c-0.5-0.5-1-1-1.5-1.5c-0.1,0-0.1,0-0.1-0.1c-3.4-3-7.7-5-12.6-5.4c-0.2,0-0.4-0.1-0.7-0.1
		c-1.3-0.1-3.2-0.2-4-0.4c-15-0.9-27-13.5-27-28.8c0-14.7,10.9-26.7,25.1-28.6c2.1-0.2,4.7-0.6,5.5-0.6c2.9-0.2,5.1-0.7,7.4-1.8
		c0,0,1.2-0.5,1.2-0.6v-0.1c2.1-1,4-2.4,5.7-4c0.3-0.3,0.7-0.6,1-1c0.4-0.4,0.7-0.8,1-1.2c3-3.8,4.9-8.5,4.9-13.7
		c0-12.2-9.9-22-22.1-22c-0.7,0-1.3,0.1-2,0.2c-0.8,0-1.5,0.1-2.2,0.3c-0.3,0-0.6,0.1-0.9,0.1c-7.5,1.7-13.7,7.1-16.2,14.3
		c0,0-0.5,1.3-1,3.7c-0.2,0.9-0.3,2.2-0.3,3.9c0,0.2,0,0.7,0,1c0,15.5-12.5,28-28,28c-12.8,0-23.5-8.5-26.9-20.2
		c-0.5-1.7-0.9-3.5-1.1-5.6c0-0.1-0.1-1.8-0.1-2.3c0.2-2.6,0.7-8.4,0.7-9.1c0.1-0.6,0.2-2.2,0.2-2.5c0-18.3-14.8-33-33-33
		c-18.2,0-33,14.7-33,33c0,18.2,14.8,33,33,33c0.2,0,10.9,0,10.9,0c0.1,0,1.4,0,2.9,0.1c7.4,0.5,14.6,5.2,19,11
		c3.2,3.7,5.1,7.8,5.6,13.3c0.1,1.3,0.3,2.6,0.3,4c0,15.2-11.9,27.6-26.9,28.5c-0.9,0.1-2.2,0.2-3.6,0.4c-0.9,0.1-1.7,0.2-2.6,0.4
		c-6,1.1-10.9,4.7-14.2,9.5c-0.1,0.3-0.2,0.4-0.3,0.5c-0.3,0.6-0.6,1.1-0.9,1.7c-1.7,3.1-2.7,6.6-2.7,10.5c0,12.1,9.8,22.1,22,22.1
		c6.3,0,12-2.7,15.9-7c1.2-1.1,2.2-2.3,3.1-3.7c1.3-1.9,2-4.1,2.4-6.4c0.1-0.4,0.1-0.7,0.2-1.2c0.2-1,0.3-2.1,0.3-3.1v0
		c0-0.2,0-0.3,0-0.5c0-0.2,0-0.3,0-0.4c0-0.2,0-0.4,0-0.4c0-3.3,0.5-6.3,1.5-9.2c0.2-0.6,0.9-2.5,1.1-2.8c0.1-0.4,0.3-0.7,0.5-1
		c4.7-9.4,14.3-15.7,25.5-15.7c1.2,0,2.4,0.1,3.6,0.3c0.4,0,0.9,0.1,1.4,0.2c7.3,1.2,14.2,6.6,15.2,7.7c0.2,0.1,0.3,0.2,0.5,0.4
		c4.9,4.9,8,11.4,8,19.6c0,0.1,0,0.6,0,1c0,0.1,0,0.2,0,0.3c0,2.7,0.6,5.4,1.5,7.8c0,0,0,0.1,0,0.1l0,0c0.1,0.3,0.3,0.7,0.4,1
		c0.3,0.9,0.7,1.7,1.2,2.4c0.1,0.1,0.2,0.4,0.4,0.6c0.2,0.3,0.4,0.5,0.6,0.8c0.3,0.5,0.6,0.8,0.6,0.8c0.3,0.4,0.7,0.7,1,1.2
		c0.5,0.5,1,1,1.4,1.4c0.5,0.5,1.1,0.9,1.6,1.3c0.5,0.4,1.1,0.8,1.6,1.1c0.7,0.4,1.4,0.8,2.2,1.2c0.5,0.3,1.1,0.5,1.7,0.7
		c0.8,0.4,1.7,0.7,2.6,0.9c0.6,0.1,1.2,0.2,1.8,0.3c0.6,0.1,1.2,0.1,1.8,0.2c0.5,0,1,0.2,1.6,0.2c12.2,0,22.1-9.9,22.1-22.1
		c0-1.9-0.4-3.7-0.8-5.5C218.7,141.5,218.4,140.6,218.1,139.7z"/>
	<path class="st2" d="M323.5,200.7c0-2.2-0.4-4.5-1-6.5c0-0.1,0-0.2-0.1-0.3c-0.2-0.5-0.4-1-0.6-1.5c-0.1-0.2-0.1-0.4-0.2-0.6
		c-0.2-0.3-0.4-0.7-0.6-1c-0.1-0.3-0.2-0.7-0.4-0.9c-0.1-0.2-0.2-0.3-0.3-0.5c-3.9-6.5-11-10.9-19.2-10.9c-0.1,0-0.2,0-0.4,0
		c-0.3,0-0.6-0.1-0.6-0.1c-15.3,0-28.2-15.3-28.2-29.3c0-16.3,13.1-29.4,29.4-29.4c0.2,0,1.3-0.1,1.3-0.1c4-0.3,7.3-1.5,10.4-3.5
		c0.2-0.1,0.3-0.2,0.4-0.3c0.1-0.1,0.3-0.2,0.5-0.3c1.6-1.1,2.9-2.4,4.2-3.8c0.2-0.1,0.2-0.2,0.3-0.4c0.3-0.4,0.7-0.9,1.1-1.4
		c0.1-0.1,0.2-0.2,0.3-0.4c0.9-1.5,1.8-3.1,2.3-4.8c0.1-0.4,0.3-0.7,0.4-1.1c0.1-0.4,0.2-0.8,0.3-1.2c0.1-0.5,0.3-1.1,0.3-1.7
		c0-0.2,0.1-0.5,0.2-0.7c0-0.9,0.1-1.8,0.1-2.8c0-12.4-10-22.3-22.3-22.3c-12.4,0-22.3,10-22.3,22.3c0,0.6,0,1.2,0.1,1.8
		c0,0,0,0.2-0.1,0.2c-0.4,15-12.7,27.1-27.8,27.1c-15.5,0-27.9-12.4-27.9-27.9c0-0.2-0.1-2-0.1-2.1c-0.1-1.9-0.4-3.8-1-5.5
		c-0.1-0.1-0.1-0.4-0.1-0.5c-0.1-0.3-0.2-0.6-0.4-0.9c-3.2-8.5-11.3-14.6-20.9-14.6c-12.3,0-22.3,10-22.3,22.3
		c0,8.6,4.8,16,11.9,19.7c0.1,0.1,0.2,0.1,0.2,0.1c2.8,1.5,5.7,2.3,9.3,2.6c0,0,0.9,0,1.1,0c16.1,0,28.9,13.1,28.9,29.1
		c0,11.2-6.3,20.9-15.6,25.8c-2.7,1.8-5.9,3.2-9.9,3.5c-0.4,0-3.5-0.1-3.6-0.1c-1.3,0-6-0.4-6.6-0.4c-16.1,0-29.1,13.1-29.1,29.1
		c0,16.2,13.1,29.2,29.1,29.2c16.1,0,29.2-13.1,29.2-29.2c0-1.1-0.1-6.9-0.1-7c0-0.5,0.1-12.5,8.3-20.6c4.7-4.8,11.2-7.2,19.1-7.4h1
		c7.9,0.2,14.4,2.6,19.1,7.4c0.9,0.9,2,2.3,2,2.3c4,4.5,6.1,10.3,6.3,17.2c-0.1,0.7-0.1,1.4-0.1,2.1c0,12.4,10,22.4,22.3,22.4
		c7.7,0,14.5-3.9,18.5-9.9C322,209.6,323.5,205.3,323.5,200.7z"/>
</g>
</svg>
