<?xml version="1.0" encoding="utf-8"?>
<!-- Generator: Adobe Illustrator 26.4.1, SVG Export Plug-In . SVG Version: 6.00 Build 0)  -->
<svg version="1.1" id="Layer_1" xmlns="http://www.w3.org/2000/svg" xmlns:xlink="http://www.w3.org/1999/xlink" x="0px" y="0px"
	 viewBox="0 0 210 55" style="enable-background:new 0 0 210 55;" xml:space="preserve">
<style type="text/css">
	.st0{display:none;}
	.st1{display:inline;}
	.st2{fill:#006A5B;}
	.st3{display:inline;fill:#6CCA98;}
	.st4{fill:#6CCA98;}
	.st5{fill:#7B868C;}
</style>
<g class="st0">
	<g class="st1">
		<path class="st2" d="M151.5,10.9L151.5,10.9h-6.9v4.2h6.8l0,0c2.9,0,4.3,0.6,4.3,2.6v12.1h5.4V17.9
			C161.1,13.5,157.6,11,151.5,10.9z"/>
		<polygon class="st2" points="92.9,23.9 92.8,23.9 89.3,10.9 82.9,10.9 79.4,23.9 79.3,23.9 75.1,10.9 69.2,10.9 76,29.8 
			82.4,29.8 86.1,17 86.1,17 89.9,29.8 96.2,29.8 103.1,10.9 97.1,10.9 		"/>
		<path class="st2" d="M179.5,6.6V2.5h-18.4v4.1h7.9c-1.7,1.6-2.7,3.6-2.7,5.8v17.4h5.4V12.5C171.6,8.7,175.8,6.6,179.5,6.6
			L179.5,6.6z"/>
		<path class="st2" d="M135.6,23c0,2-1.2,3.2-4.5,3.3c-0.1,0-0.3,0-0.4,0c-0.1,0-0.2,0-0.3,0c-3.3-0.1-4.5-1.4-4.5-3.2v-5.8v-0.1
			c0-0.4,0-0.9-0.2-1.4c-0.5-2.1-2.2-3.8-4.9-4.8c-1.5-0.5-3.2-0.8-5.2-0.8l0,0c-5.6,0-9.3,2.3-10.1,5.6c-0.1,0.5-0.2,1-0.2,1.5
			v12.5l0,0l0,0h8.3v-4.1h-2.8v-7.8c0-2,1.1-3.3,4.5-3.4c0.1,0,0.2,0,0.4,0c0.1,0,0.2,0,0.4,0c3.1,0.1,4.3,1.2,4.4,3v6.1
			c0,0.1,0,0.2,0,0.3c0,0.4,0.1,0.8,0.2,1.2c0.5,2.1,2.2,3.9,4.9,4.8c1.5,0.5,3.2,0.8,5.2,0.8h0.1c1.8,0,3.5-0.3,4.9-0.7v0.5
			c0,2-1.3,2.6-4.3,2.6l0,0h-8.1v4.3h8.3l0,0c6.2,0,9.6-2.6,9.6-7V10.9h-5.4V23H135.6z"/>
		<path class="st2" d="M193.3,10.1c-0.1,0-0.4,0-0.7,0l0,0c-2.7,0-5.5,0.8-7.8,2.1v-1.3h-5.5v19h5.5v-10c0-1,0.4-1.9,0.9-2.6
			c1.4-1.9,4.3-2.9,6.8-2.9l0,0c3.1,0,5.1,0.7,5.1,2.6v12.8h5.4V17.1C203.1,12.7,199.6,10.1,193.3,10.1z"/>
	</g>
	<path class="st3" d="M72.7,50.5h6.7c3.3,0,5.1-1.6,5.1-4.2c0-2.5-2-4.2-5-4.2H69.2v12.4h3.6L72.7,50.5L72.7,50.5z M72.7,44.9h6.6
		c1.1,0,1.8,0.5,1.8,1.3c0,0.9-0.7,1.5-1.8,1.5h-6.6V44.9z M146.9,54.5h3.6v-9.6h5.9v-2.8H141v2.8h5.9V54.5z M163.5,49.7h8.9v4.8
		h3.6V42.1h-3.6v4.8h-8.9v-4.8h-3.6v12.4h3.6V49.7z M127.9,54.5l1.4-2.6h7.7l1.4,2.6h3.7l-6.9-12.4h-4l-6.9,12.4H127.9z M133.1,45
		l2.3,4.1h-4.5L133.1,45z M91.9,49.7h8.9v4.8h3.6V42.1h-3.6v4.8h-8.9v-4.8h-3.6v12.4h3.6V49.7z M114.5,54.5h3.6v-4.8l7.8-7.7h-4.5
		l-5,5l-5.1-5h-4.5l7.8,7.7v4.8H114.5z M199.5,42.1v12.4h3.6V42.1H199.5z M185.7,42.1l-6.9,12.4h3.7l1.4-2.6h7.7l1.4,2.6h3.7
		l-6.9-12.4H185.7z M185.5,49.1l2.2-4.1l2.2,4.1H185.5z"/>
	<g class="st1">
		<path class="st4" d="M31.1,38.1L31.1,38.1c0.1,0,0.2,0,0.2,0l0,0c0.1,0,0.2,0,0.4,0c1.3-0.2,2.4-1.1,2.8-2.3
			c0-0.1,0.1-0.2,0.1-0.3s0-0.1,0-0.2c0-0.2,0.1-0.4,0.1-0.6l0,0l0,0c0-2-1.6-3.6-3.6-3.6s-3.6,1.6-3.6,3.6c0,0.1,0,0.1,0,0.2
			c0,0.1,0,0.3,0,0.4c0,0.2-0.1,0.5-0.1,0.7c-0.5,1.9-2.3,3.4-4.5,3.4s-4.1-1.5-4.5-3.6c0-0.1-0.1-0.4-0.1-0.7c0,0,0-0.4,0-0.9
			c0-0.2,0-0.4,0-0.5c0-0.2,0-0.5,0-0.6c0-2.9-2.4-5.2-5.2-5.2c-2.9,0-5.2,2.3-5.2,5.2s2.3,5.2,5.2,5.2h2c2.3,0,4.6,2.3,4.6,4.6
			c0,2.5-1.9,4.5-4.4,4.6c-0.1,0-0.2,0-0.3,0h-0.1c-2,0-3.6,1.6-3.6,3.6s1.6,3.6,3.6,3.6c0.4,0,0.8-0.1,1.1-0.2c0.1,0,0.2,0,0.3-0.1
			c0.1,0,0.2-0.1,0.3-0.1c0.1-0.1,0.2-0.1,0.3-0.2C17,54,17,54,17.1,53.9c0.1-0.1,0.2-0.2,0.3-0.3c0.1-0.1,0.1-0.1,0.2-0.2
			c0.1-0.1,0.2-0.2,0.3-0.3c0-0.1,0.1-0.1,0.1-0.2c0.1-0.1,0.1-0.3,0.2-0.4c0-0.1,0.1-0.1,0.1-0.2c0.1-0.1,0.1-0.3,0.1-0.4
			c0-0.1,0-0.2,0-0.2c0-0.1,0-0.2,0.1-0.3c0-0.2,0-0.4,0-0.4c0-0.1,0-0.2,0-0.2c0.2-2.4,2.1-4.2,4.5-4.2s4.4,1.9,4.5,4.4
			c0,0.1,0,0.1,0,0.2l0,0c0,0.6,0.2,1.2,0.4,1.7c0.1,0.1,0.1,0.2,0.2,0.3c0.1,0.2,0.2,0.3,0.4,0.5c0,0,0,0,0.1,0.1
			c0.6,0.6,1.5,1,2.5,1c0.1,0,0.1,0,0.2,0s0.3,0,0.4,0s0.2,0,0.3-0.1c0.1,0,0.2-0.1,0.3-0.1c0.2,0,0.3-0.1,0.4-0.2
			c0,0,0.1,0,0.1-0.1c0,0,0,0,0.1,0c0.1-0.1,0.2-0.1,0.3-0.2c0.1-0.1,0.3-0.2,0.4-0.3c0.1-0.1,0.1-0.1,0.2-0.2
			c0.1-0.1,0.1-0.2,0.2-0.3c0.1-0.1,0.1-0.1,0.1-0.2c0.1-0.1,0.2-0.3,0.2-0.5c0-0.1,0.1-0.1,0.1-0.2c0-0.1,0.1-0.3,0.1-0.4
			c0-0.1,0-0.2,0-0.3s0-0.3,0-0.4c0-0.1,0-0.1,0-0.2c0-0.1,0-0.2,0-0.3s0-0.2,0-0.3s-0.1-0.3-0.1-0.4c0-0.1,0-0.1,0-0.2
			c-0.4-1.3-1.5-2.2-2.9-2.4h-0.1c-0.1,0-0.2,0-0.3,0c-0.1,0-0.1,0-0.1,0c-2.5-0.1-4.5-2.1-4.5-4.6C26.5,40.2,28.5,38.2,31.1,38.1z"
			/>
		<path class="st2" d="M42.5,32.9c0-0.1,0-0.1-0.1-0.2c-0.1-0.1-0.1-0.3-0.2-0.4l-0.1-0.1c-0.1-0.1-0.2-0.3-0.3-0.4
			s-0.2-0.2-0.2-0.2l0,0c-0.5-0.5-1.2-0.8-2-0.9h-0.1c-0.2,0-0.5,0-0.6-0.1c-2.4-0.1-4.3-2.1-4.3-4.6c0-2.3,1.7-4.3,4-4.6
			c0.3,0,0.7-0.1,0.9-0.1c0.5,0,0.8-0.1,1.2-0.3l0.2-0.1l0,0c0.3-0.2,0.6-0.4,0.9-0.6c0.1-0.1,0.1-0.1,0.2-0.2
			c0.1-0.1,0.1-0.1,0.2-0.2c0.5-0.6,0.8-1.4,0.8-2.2c0-1.9-1.6-3.5-3.5-3.5c-0.1,0-0.2,0-0.3,0s-0.2,0-0.4,0h-0.1
			c-1.2,0.3-2.2,1.1-2.6,2.3c0,0-0.1,0.2-0.2,0.6c0,0.1,0,0.4-0.1,0.6c0,0,0,0.1,0,0.2c0,2.5-2,4.5-4.5,4.5c-2,0-3.8-1.4-4.3-3.2
			c-0.1-0.3-0.1-0.6-0.2-0.9c0,0,0-0.3,0-0.4c0-0.4,0.1-1.3,0.1-1.4s0-0.4,0-0.4c0-2.9-2.4-5.3-5.3-5.3s-5.3,2.4-5.3,5.3
			s2.4,5.3,5.3,5.3h1.7c0,0,0.2,0,0.5,0c1.2,0.1,2.3,0.8,3,1.8c0.5,0.6,0.8,1.2,0.9,2.1c0,0.2,0.1,0.4,0.1,0.6
			c0,2.4-1.9,4.4-4.3,4.6c-0.1,0-0.4,0-0.6,0.1c-0.2,0-0.3,0-0.4,0.1c-1,0.2-1.7,0.8-2.3,1.5c0,0,0,0.1-0.1,0.1
			C20,32.4,20,32.5,20,32.6c-0.3,0.5-0.4,1.1-0.4,1.7c0,1.9,1.6,3.5,3.5,3.5c1,0,1.9-0.4,2.5-1.1c0.2-0.2,0.4-0.4,0.5-0.6
			c0.2-0.3,0.3-0.7,0.4-1c0-0.1,0-0.1,0-0.2c0-0.2,0.1-0.3,0.1-0.5l0,0v-0.1c0,0,0,0,0-0.1v-0.1c0-0.5,0.1-1,0.2-1.5
			c0-0.1,0.1-0.4,0.2-0.4c0-0.1,0-0.1,0.1-0.2c0.7-1.5,2.3-2.5,4.1-2.5c0.2,0,0.4,0,0.6,0c0.1,0,0.1,0,0.2,0
			c1.2,0.2,2.3,1.1,2.4,1.2c0,0,0.1,0,0.1,0.1c0.8,0.8,1.3,1.8,1.3,3.1c0,0,0,0.1,0,0.2l0,0c0,0.4,0.1,0.9,0.2,1.2l0,0l0,0
			c0,0.1,0,0.1,0.1,0.2c0.1,0.1,0.1,0.3,0.2,0.4c0,0,0,0.1,0.1,0.1l0.1,0.1c0.1,0.1,0.1,0.1,0.1,0.1c0.1,0.1,0.1,0.1,0.2,0.2
			c0.1,0.1,0.2,0.2,0.2,0.2c0.1,0.1,0.2,0.1,0.3,0.2c0.1,0.1,0.2,0.1,0.3,0.2c0.1,0.1,0.2,0.1,0.3,0.2c0.1,0,0.2,0.1,0.3,0.1
			c0.1,0.1,0.3,0.1,0.4,0.1c0.1,0,0.2,0,0.3,0.1c0.1,0,0.2,0,0.3,0s0.2,0,0.2,0c1.9,0,3.5-1.6,3.5-3.5c0-0.3-0.1-0.6-0.1-0.9
			C42.6,33.2,42.6,33,42.5,32.9z"/>
		<path class="st5" d="M59.4,42.6c0-0.4-0.1-0.7-0.2-1c0,0,0,0,0-0.1s-0.1-0.2-0.1-0.2v-0.1c0-0.1-0.1-0.1-0.1-0.2
			c0-0.1,0-0.1-0.1-0.1c0,0,0,0,0-0.1c-0.6-1-1.8-1.7-3.1-1.7c0,0,0,0-0.1,0s-0.1,0-0.1,0c-2.4,0-4.5-2.5-4.5-4.7
			c0-2.6,2.1-4.7,4.7-4.7H56c0.6,0,1.2-0.2,1.7-0.6c0,0,0,0,0.1-0.1c0,0,0.1,0,0.1-0.1c0.3-0.2,0.5-0.4,0.7-0.6c0,0,0,0,0-0.1
			c0.1-0.1,0.1-0.1,0.2-0.2c0,0,0,0,0-0.1c0.2-0.2,0.3-0.5,0.4-0.8c0-0.1,0-0.1,0.1-0.2c0-0.1,0-0.1,0-0.2s0-0.2,0.1-0.3v-0.1
			c0-0.1,0-0.3,0-0.4c0-2-1.6-3.6-3.6-3.6s-3.6,1.6-3.6,3.6c0,0.1,0,0.2,0,0.3l0,0c-0.1,2.4-2,4.3-4.4,4.3c-2.5,0-4.5-2-4.5-4.5
			v-0.3c0-0.3-0.1-0.6-0.2-0.9v-0.1c0-0.1,0-0.1-0.1-0.1c-0.5-1.4-1.8-2.3-3.3-2.3c-2,0-3.6,1.6-3.6,3.6c0,1.4,0.8,2.6,1.9,3.2l0,0
			c0.5,0.2,0.9,0.4,1.5,0.4c0,0,0.1,0,0.2,0c2.6,0,4.6,2.1,4.6,4.7c0,1.8-1,3.3-2.5,4.1C41.5,38.7,41,39,40.3,39c-0.1,0-0.6,0-0.6,0
			c-0.2,0-1-0.1-1-0.1c-2.6,0-4.7,2.1-4.7,4.6c0,2.6,2.1,4.7,4.7,4.7c2.6,0,4.7-2.1,4.7-4.7c0-0.2,0-1.1,0-1.1c0-0.1,0-2,1.3-3.3
			c0.8-0.8,1.8-1.2,3-1.2h0.2c1.3,0,2.3,0.4,3.1,1.2c0.1,0.1,0.3,0.4,0.3,0.4c0.6,0.7,1,1.6,1,2.8c0,0.1,0,0.2,0,0.3
			c0,2,1.6,3.6,3.6,3.6c1.2,0,2.3-0.6,3-1.6C59.1,44,59.4,43.4,59.4,42.6z"/>
	</g>
</g>
<g>
	<g>
		<path class="st2" d="M135.8,10.9L135.8,10.9h-6.5v4h6.3l0,0c2.7,0,4,0.6,4,2.5v11.3h5.1V17.5C144.8,13.4,141.6,11,135.8,10.9z"/>
		<polygon class="st2" points="80.8,23.1 80.8,23.1 77.5,10.9 71.5,10.9 68.2,23.1 68,23.1 64.1,10.9 58.6,10.9 65,28.7 70.9,28.7 
			74.4,16.6 74.5,16.6 78,28.7 84,28.7 90.4,10.9 84.8,10.9 		"/>
		<path class="st2" d="M162.1,6.9V3.1h-17.3v3.8h7.4c-1.6,1.5-2.6,3.4-2.6,5.5v16.3h5.1V12.4C154.7,8.9,158.6,6.9,162.1,6.9
			L162.1,6.9z"/>
		<path class="st2" d="M120.9,22.3c0,1.8-1.1,3-4.2,3.1c-0.1,0-0.3,0-0.4,0s-0.2,0-0.3,0c-3-0.1-4.2-1.3-4.2-3V17c0,0,0,0,0-0.1
			c0-0.4,0-0.9-0.1-1.3c-0.5-2-2.1-3.6-4.5-4.5c-1.4-0.5-3-0.8-4.9-0.8h-0.1c-5.2,0-8.7,2.1-9.5,5.2c-0.1,0.4-0.2,0.9-0.2,1.4v11.7
			l0,0v0h7.7v-3.8h-2.7v-7.3c0-1.9,1.1-3.1,4.2-3.2c0.1,0,0.2,0,0.4,0c0.1,0,0.2,0,0.3,0c2.9,0.1,4,1.2,4.2,2.8v5.7
			c0,0.1,0,0.2,0,0.3c0,0.4,0,0.8,0.1,1.1c0.5,2,2.1,3.6,4.6,4.5c1.4,0.5,3,0.8,4.9,0.8h0c1.7,0,3.3-0.3,4.6-0.7v0.5
			c0,1.9-1.2,2.5-4,2.5l0,0h-7.6v4h7.7v0c5.8,0,9-2.5,9-6.6V10.9h-5.1L120.9,22.3L120.9,22.3z"/>
		<path class="st2" d="M175,10.2c-0.1,0-0.4,0-0.6,0l0,0c-2.5,0-5.1,0.7-7.3,1.9v-1.2H162v17.8h5.1v-9.3c0-1,0.3-1.8,0.8-2.5
			c1.4-1.8,4-2.7,6.4-2.7l0,0c2.9,0,4.8,0.7,4.8,2.5v12h5.1V16.8C184.2,12.7,181,10.2,175,10.2z"/>
	</g>
	<path class="st4" d="M61.9,48.1h6.3c3.1,0,4.8-1.5,4.8-4c0-2.3-1.8-3.9-4.7-3.9h-9.8v11.7h3.3L61.9,48.1L61.9,48.1z M61.9,42.8H68
		c1.1,0,1.7,0.5,1.7,1.2c0,0.8-0.6,1.4-1.6,1.4h-6.2L61.9,42.8L61.9,42.8z M131.5,51.9h3.3v-9.1h5.6v-2.6h-14.4v2.6h5.6L131.5,51.9
		L131.5,51.9z M147,47.4h8.3v4.5h3.3V40.2h-3.3v4.5H147v-4.5h-3.3v11.7h3.3V47.4z M113.7,51.9l1.4-2.4h7.2l1.4,2.4h3.4l-6.5-11.7
		h-3.8l-6.5,11.7H113.7z M118.6,43l2.1,3.8h-4.2L118.6,43z M79.9,47.4h8.3v4.5h3.3V40.2h-3.3v4.5h-8.3v-4.5h-3.3v11.7h3.3V47.4z
		 M101.1,51.9h3.3v-4.5l7.3-7.2h-4.2l-4.7,4.7L98,40.2h-4.2l7.3,7.2V51.9z M180.8,40.2v11.7h3.3V40.2
		C184.2,40.2,180.8,40.2,180.8,40.2z M167.9,40.2l-6.5,11.7h3.4l1.4-2.4h7.2l1.4,2.4h3.4l-6.5-11.7
		C171.7,40.2,167.9,40.2,167.9,40.2z M167.7,46.8l2.1-3.8l2.1,3.8H167.7z"/>
	<g>
		<path class="st4" d="M22.8,36.5C22.8,36.5,22.8,36.5,22.8,36.5c0.1,0,0.1,0,0.2,0h0c0.1,0,0.2,0,0.3,0c1.2-0.2,2.2-1,2.6-2.2
			c0-0.1,0.1-0.2,0.1-0.3c0-0.1,0-0.1,0-0.2c0-0.2,0.1-0.4,0.1-0.6l0,0l0,0c0-1.9-1.5-3.3-3.3-3.3c-1.9,0-3.4,1.5-3.4,3.3
			c0,0.1,0,0.1,0,0.1c0,0.1,0,0.3,0,0.4c0,0.2-0.1,0.5-0.1,0.7c-0.5,1.8-2.2,3.2-4.2,3.2c-2.1,0-3.8-1.4-4.3-3.4
			c0-0.1,0-0.3-0.1-0.7c0,0,0-0.4,0-0.8c0-0.2,0-0.4,0-0.5c0-0.1,0-0.5,0-0.5c0-2.7-2.2-4.9-4.9-4.9S1,28.9,1,31.6s2.2,4.9,4.9,4.9
			h1.8c2.1,0,4.3,2.2,4.3,4.3c0,2.3-1.8,4.2-4.1,4.3c0,0-0.2,0-0.3,0c0,0-0.1,0-0.1,0c-1.9,0-3.3,1.5-3.3,3.3s1.5,3.3,3.3,3.3
			c0.4,0,0.7-0.1,1-0.2c0.1,0,0.1,0,0.2-0.1c0.1,0,0.2-0.1,0.3-0.1c0.1,0,0.2-0.1,0.3-0.1c0.1,0,0.1-0.1,0.2-0.1
			C9.7,51,9.8,51,9.9,50.9c0.1,0,0.1-0.1,0.1-0.2c0.1-0.1,0.2-0.2,0.3-0.3c0-0.1,0.1-0.1,0.1-0.2c0.1-0.1,0.1-0.3,0.2-0.4
			c0-0.1,0.1-0.1,0.1-0.2c0-0.1,0.1-0.3,0.1-0.4c0-0.1,0-0.1,0-0.2c0-0.1,0-0.2,0-0.3c0-0.2,0-0.3,0-0.4c0-0.1,0-0.1,0-0.2
			c0.1-2.2,2-4,4.2-4c2.3,0,4.1,1.8,4.2,4.1c0,0.1,0,0.1,0,0.2l0,0c0,0.6,0.1,1.1,0.4,1.6c0,0.1,0.1,0.2,0.1,0.3
			c0.1,0.1,0.2,0.3,0.4,0.4c0,0,0,0,0.1,0.1c0.6,0.6,1.4,1,2.4,1c0,0,0.1,0,0.1,0c0.1,0,0.3,0,0.4,0c0.1,0,0.2,0,0.3-0.1
			c0.1,0,0.2-0.1,0.3-0.1c0.1,0,0.3-0.1,0.4-0.2c0,0,0.1,0,0.1-0.1c0,0,0,0,0.1,0c0.1-0.1,0.2-0.1,0.3-0.2c0.1-0.1,0.3-0.2,0.4-0.3
			c0.1-0.1,0.1-0.1,0.2-0.2c0.1-0.1,0.1-0.1,0.2-0.3c0-0.1,0.1-0.1,0.1-0.2c0.1-0.1,0.1-0.3,0.2-0.4c0-0.1,0.1-0.1,0.1-0.2
			c0-0.1,0.1-0.3,0.1-0.4c0-0.1,0-0.1,0-0.3c0-0.1,0-0.3,0-0.4c0-0.1,0-0.1,0-0.2c0-0.1,0-0.1,0-0.3c0-0.1,0-0.2,0-0.3
			c0-0.1,0-0.3-0.1-0.4c0,0,0-0.1,0-0.1c-0.4-1.2-1.5-2.1-2.7-2.2c0,0-0.1,0-0.1,0c-0.1,0-0.2,0-0.3,0c0,0-0.1,0-0.1,0
			c-2.3-0.1-4.2-2-4.2-4.3C18.6,38.5,20.4,36.5,22.8,36.5z"/>
		<path class="st2" d="M33.6,31.6c0,0,0-0.1-0.1-0.1c-0.1-0.1-0.1-0.3-0.2-0.4c0,0,0-0.1-0.1-0.1c-0.1-0.1-0.2-0.3-0.3-0.4
			c-0.1-0.1-0.1-0.1-0.2-0.2l0,0c-0.5-0.4-1.2-0.7-1.9-0.8c0,0-0.1,0-0.1,0c-0.2,0-0.5,0-0.6-0.1c-2.2-0.1-4.1-2-4.1-4.3
			c0-2.2,1.6-4,3.8-4.3c0.3,0,0.7-0.1,0.8-0.1c0.4,0,0.8-0.1,1.1-0.3l0.2-0.1l0,0c0.3-0.1,0.6-0.4,0.8-0.6c0,0,0.1-0.1,0.1-0.1
			c0.1,0,0.1-0.1,0.1-0.2c0.4-0.5,0.7-1.3,0.7-2.1c0-1.8-1.5-3.3-3.3-3.3c-0.1,0-0.2,0-0.3,0c-0.1,0-0.2,0-0.3,0c0,0-0.1,0-0.1,0
			c-1.1,0.3-2.1,1.1-2.4,2.2c0,0-0.1,0.2-0.1,0.5c0,0.1,0,0.3,0,0.6c0,0,0,0.1,0,0.1c0,2.3-1.9,4.2-4.2,4.2c-1.9,0-3.5-1.3-4-3
			c-0.1-0.3-0.1-0.5-0.1-0.8c0,0,0-0.3,0-0.3c0-0.4,0.1-1.2,0.1-1.4c0-0.1,0-0.3,0-0.4c0-2.7-2.2-4.9-4.9-4.9C11.2,11,9,13.2,9,16
			c0,2.7,2.2,4.9,4.9,4.9c0,0,1.6,0,1.6,0c0,0,0.2,0,0.4,0c1.1,0.1,2.2,0.8,2.9,1.6c0.5,0.5,0.8,1.2,0.8,2c0,0.2,0,0.4,0,0.6
			c0,2.3-1.8,4.1-4,4.3c-0.1,0-0.3,0-0.5,0.1c-0.1,0-0.3,0-0.4,0.1c-0.9,0.2-1.6,0.7-2.1,1.4c0,0,0,0.1,0,0.1c0,0.1-0.1,0.2-0.1,0.3
			c-0.3,0.5-0.4,1-0.4,1.6c0,1.8,1.5,3.3,3.3,3.3c1,0,1.8-0.4,2.4-1.1c0.2-0.1,0.3-0.4,0.5-0.5c0.2-0.3,0.3-0.6,0.4-1
			c0-0.1,0-0.1,0-0.2c0-0.1,0-0.3,0-0.5l0,0c0,0,0,0,0-0.1c0,0,0,0,0-0.1s0,0,0,0c0-0.5,0.1-1,0.2-1.4c0-0.1,0.1-0.4,0.2-0.4
			c0,0,0-0.1,0.1-0.1c0.7-1.4,2.2-2.3,3.8-2.3c0.2,0,0.4,0,0.5,0c0.1,0,0.1,0,0.2,0c1.1,0.2,2.1,1,2.3,1.2c0,0,0,0,0.1,0.1
			c0.7,0.7,1.2,1.7,1.2,2.9c0,0,0,0.1,0,0.1v0c0,0.4,0.1,0.8,0.2,1.2c0,0,0,0,0,0l0,0c0,0,0,0.1,0.1,0.1c0,0.1,0.1,0.3,0.2,0.4
			c0,0,0,0.1,0.1,0.1s0.1,0.1,0.1,0.1C27.9,35,28,35,28,35c0,0.1,0.1,0.1,0.1,0.2c0.1,0.1,0.1,0.1,0.2,0.2c0.1,0.1,0.1,0.1,0.3,0.2
			c0.1,0.1,0.1,0.1,0.3,0.2c0.1,0.1,0.2,0.1,0.3,0.2c0.1,0,0.2,0.1,0.3,0.1c0.1,0.1,0.3,0.1,0.4,0.1c0.1,0,0.2,0,0.3,0
			c0.1,0,0.2,0,0.3,0c0.1,0,0.1,0,0.2,0c1.8,0,3.3-1.5,3.3-3.3c0-0.3,0-0.5-0.1-0.8C33.7,31.9,33.6,31.7,33.6,31.6z"/>
		<path class="st5" d="M49.4,40.7c0-0.3,0-0.7-0.1-1v0c0-0.1-0.1-0.1-0.1-0.2c0,0,0-0.1,0-0.1c0,0-0.1-0.1-0.1-0.1
			c0,0,0-0.1-0.1-0.1c0,0,0,0,0-0.1c-0.6-1-1.6-1.6-2.9-1.6c0,0,0,0,0,0c0,0-0.1,0-0.1,0c-2.3,0-4.2-2.3-4.2-4.4
			c0-2.5,2-4.4,4.4-4.4c0,0,0.2,0,0.2,0c0.6,0,1.1-0.2,1.5-0.5c0,0,0,0,0.1,0c0,0,0,0,0.1,0c0.2-0.2,0.4-0.4,0.6-0.6c0,0,0,0,0-0.1
			c0-0.1,0.1-0.1,0.1-0.2c0,0,0,0,0-0.1c0.1-0.2,0.3-0.5,0.4-0.7c0-0.1,0-0.1,0.1-0.1c0-0.1,0-0.1,0-0.2c0-0.1,0-0.2,0-0.3
			c0,0,0-0.1,0-0.1c0-0.1,0-0.3,0-0.4c0-1.9-1.5-3.3-3.3-3.3c-1.8,0-3.3,1.5-3.3,3.3c0,0.1,0,0.2,0,0.3v0c-0.1,2.2-1.9,4.1-4.2,4.1
			c-2.3,0-4.2-1.9-4.2-4.2c0,0,0-0.3,0-0.3c0-0.3-0.1-0.5-0.1-0.8c0,0,0,0,0-0.1s0-0.1,0-0.1c-0.5-1.3-1.7-2.2-3.2-2.2
			c-1.8,0-3.3,1.5-3.3,3.3c0,1.3,0.7,2.4,1.8,3l0,0c0.4,0.2,0.8,0.3,1.4,0.4c0,0,0.1,0,0.2,0c2.4,0,4.3,1.9,4.3,4.4
			c0,1.7-1,3.2-2.3,3.8c-0.4,0.3-0.9,0.5-1.5,0.5c-0.1,0-0.5,0-0.5,0c-0.2,0-0.9-0.1-1-0.1c-2.4,0-4.4,1.9-4.4,4.4s1.9,4.4,4.4,4.4
			s4.4-1.9,4.4-4.4c0-0.2,0-1,0-1.1c0-0.1,0-1.9,1.2-3.1c0.7-0.7,1.7-1.1,2.9-1.1h0.1c1.2,0,2.2,0.4,2.9,1.1
			c0.1,0.1,0.3,0.4,0.3,0.4c0.6,0.7,0.9,1.5,1,2.6c0,0.1,0,0.2,0,0.3c0,1.9,1.5,3.3,3.3,3.3c1.2,0,2.2-0.6,2.8-1.5
			C49.1,42.1,49.4,41.4,49.4,40.7z"/>
	</g>
	<polygon class="st2" points="195.8,10.9 193.4,15.7 203.8,15.6 203.8,51.9 209,51.9 209,10.9 	"/>
</g>
</svg>
